<?xml version="1.0" encoding="UTF-8" standalone="no"?>
<!-- Created with Inkscape (http://www.inkscape.org/) -->

<svg
   width="207mm"
   height="147mm"
   viewBox="0 0 207 147"
   version="1.1"
   id="svg1"
   sodipodi:docname="image.svg"
   inkscape:version="1.4.2 (f4327f4, 2025-05-13)"
   xmlns:inkscape="http://www.inkscape.org/namespaces/inkscape"
   xmlns:sodipodi="http://sodipodi.sourceforge.net/DTD/sodipodi-0.dtd"
   xmlns:xlink="http://www.w3.org/1999/xlink"
   xmlns="http://www.w3.org/2000/svg"
   xmlns:svg="http://www.w3.org/2000/svg">
  <sodipodi:namedview
     id="namedview1"
     pagecolor="#ffffff"
     bordercolor="#000000"
     borderopacity="0.14509804"
     inkscape:showpageshadow="2"
     inkscape:pageopacity="0.0"
     inkscape:pagecheckerboard="0"
     inkscape:deskcolor="#d1d1d1"
     inkscape:document-units="mm"
     inkscape:zoom="0.71891835"
     inkscape:cx="395.03791"
     inkscape:cy="552.21848"
     inkscape:window-width="1461"
     inkscape:window-height="1032"
     inkscape:window-x="314"
     inkscape:window-y="6"
     inkscape:window-maximized="0"
     inkscape:current-layer="layer1"
     showguides="true">
    <sodipodi:guide
       position="-75.814145,-131.96652"
       orientation="1,0"
       id="guide25"
       inkscape:locked="false" />
  </sodipodi:namedview>
  <defs
     id="defs1">
    <inkscape:path-effect
       effect="powerstroke"
       message=""
       id="path-effect12"
       is_visible="true"
       lpeversion="1.3"
       scale_width="1"
       interpolator_type="CubicBezierJohan"
       interpolator_beta="0.2"
       start_linecap_type="zerowidth"
       end_linecap_type="zerowidth"
       offset_points="0,4.9921382"
       linejoin_type="extrp_arc"
       miter_limit="4"
       not_jump="false"
       sort_points="true" />
    <inkscape:path-effect
       effect="powerstroke"
       message=""
       id="path-effect9"
       is_visible="true"
       lpeversion="1.3"
       scale_width="1"
       interpolator_type="CubicBezierJohan"
       interpolator_beta="0.2"
       start_linecap_type="zerowidth"
       end_linecap_type="zerowidth"
       offset_points="0,4.9921382"
       linejoin_type="extrp_arc"
       miter_limit="4"
       not_jump="false"
       sort_points="true" />
    <inkscape:path-effect
       effect="powerstroke"
       message=""
       id="path-effect7"
       is_visible="true"
       lpeversion="1.3"
       scale_width="1"
       interpolator_type="CubicBezierJohan"
       interpolator_beta="0.2"
       start_linecap_type="zerowidth"
       end_linecap_type="zerowidth"
       offset_points="0,4.9921382"
       linejoin_type="extrp_arc"
       miter_limit="4"
       not_jump="false"
       sort_points="true" />
    <inkscape:path-effect
       effect="powerstroke"
       message=""
       id="path-effect5"
       is_visible="true"
       lpeversion="1.3"
       scale_width="1"
       interpolator_type="CubicBezierJohan"
       interpolator_beta="0.2"
       start_linecap_type="zerowidth"
       end_linecap_type="zerowidth"
       offset_points="0,4.9921382"
       linejoin_type="extrp_arc"
       miter_limit="4"
       not_jump="false"
       sort_points="true" />
    <inkscape:path-effect
       effect="fill_between_many"
       method="bsplinespiro"
       autoreverse="false"
       close="false"
       join="false"
       linkedpaths="#path5,0,1"
       id="path-effect6"
       is_visible="true"
       lpeversion="0" />
    <inkscape:path-effect
       effect="fill_between_many"
       method="bsplinespiro"
       autoreverse="false"
       close="false"
       join="false"
       linkedpaths="#path7,0,1"
       id="path-effect8"
       is_visible="true"
       lpeversion="0" />
    <inkscape:path-effect
       effect="fill_between_many"
       method="bsplinespiro"
       autoreverse="false"
       close="false"
       join="false"
       linkedpaths="#path9,0,1"
       id="path-effect10"
       is_visible="true"
       lpeversion="0" />
    <inkscape:path-effect
       effect="fill_between_many"
       method="bsplinespiro"
       autoreverse="false"
       close="false"
       join="false"
       linkedpaths="#path12,0,1"
       id="path-effect13"
       is_visible="true"
       lpeversion="0" />
    <clipPath
       clipPathUnits="userSpaceOnUse"
       id="clipPath13">
      <path
         inkscape:original-d="M 0,0"
         inkscape:path-effect="#path-effect13"
         d="M 171.86989,69.736435 C 14.72119,-48.567737 86.855016,61.69635 86.855016,61.69635"
         id="path14"
         style="fill:#ffff00" />
    </clipPath>
    <clipPath
       clipPathUnits="userSpaceOnUse"
       id="clipPath14">
      <path
         inkscape:original-d="M 0,0"
         inkscape:path-effect="#path-effect13"
         d="M 171.86989,69.736435 C 14.72119,-48.567737 86.855016,61.69635 86.855016,61.69635"
         id="path15"
         style="fill:#ffff00" />
    </clipPath>
    <clipPath
       clipPathUnits="userSpaceOnUse"
       id="clipPath15">
      <path
         inkscape:original-d="M 0,0"
         inkscape:path-effect="#path-effect13"
         d="M 0,0"
         id="path16"
         style="fill:#ffff00" />
    </clipPath>
    <clipPath
       clipPathUnits="userSpaceOnUse"
       id="clipPath25">
      <use
         x="0"
         y="0"
         xlink:href="#g24"
         id="use25" />
    </clipPath>
    <clipPath
       clipPathUnits="userSpaceOnUse"
       id="clipPath28">
      <use
         x="0"
         y="0"
         xlink:href="#g27"
         id="use28" />
    </clipPath>
    <clipPath
       clipPathUnits="userSpaceOnUse"
       id="clipPath29">
      <rect
         style="fill:#878778;fill-opacity:0.00518135;stroke-width:0.264583"
         id="rect30"
         width="208.67285"
         height="133.22676"
         x="2.5762081"
         y="9.2007437"
         inkscape:transform-center-y="11.776952" />
    </clipPath>
    <clipPath
       clipPathUnits="userSpaceOnUse"
       id="clipPath31">
      <rect
         style="fill:#808080;fill-opacity:0;stroke-width:0.264583"
         id="rect32"
         width="206.09665"
         height="130.28253"
         x="3.6802974"
         y="10.672863"
         clip-path="url(#clipPath29)"
         transform="translate(0.36802936,-1.1040896)" />
    </clipPath>
    <clipPath
       clipPathUnits="userSpaceOnUse"
       id="clipPath32">
      <rect
         style="fill:#808080;fill-opacity:0;stroke-width:0.264583"
         id="rect33"
         width="206.09665"
         height="130.28253"
         x="3.6802974"
         y="10.672863"
         clip-path="url(#clipPath29)"
         transform="matrix(1,0,0,1.0082192,-1.1040896,-4.126975)" />
    </clipPath>
    <clipPath
       clipPathUnits="userSpaceOnUse"
       id="clipPath45">
      <rect
         style="fill:#808080;fill-opacity:0.0518135;stroke-width:0.261499"
         id="rect45"
         width="201.6803"
         height="128.07436"
         x="9.2007427"
         y="10.304833" />
    </clipPath>
    <clipPath
       clipPathUnits="userSpaceOnUse"
       id="clipPath46">
      <rect
         style="fill:#808080;fill-opacity:0.0518135;stroke-width:0.261499"
         id="rect46"
         width="201.6803"
         height="128.07436"
         x="9.2007427"
         y="10.304833" />
    </clipPath>
    <clipPath
       clipPathUnits="userSpaceOnUse"
       id="clipPath47">
      <rect
         style="fill:#808080;fill-opacity:0.0518135;stroke-width:0.261499"
         id="rect47"
         width="201.6803"
         height="128.07436"
         x="9.2007427"
         y="10.304833" />
    </clipPath>
    <clipPath
       clipPathUnits="userSpaceOnUse"
       id="clipPath48">
      <rect
         style="fill:#808080;fill-opacity:0.0518135;stroke-width:0.262572"
         id="rect48"
         width="201.6803"
         height="129.12701"
         x="7.7286234"
         y="7.37572" />
    </clipPath>
  </defs>
  <g
     inkscape:label="Layer 1"
     inkscape:groupmode="layer"
     id="layer1">
    <g
       id="g28"
       clip-path="url(#clipPath48)"
       transform="matrix(1,0,0,1.0403002,-4.0483271,0.05566262)">
      <g
         inkscape:label="Clip"
         id="g27">
        <g
           id="g26">
          <g
             id="g25"
             clip-path="url(#clipPath25)">
            <g
               inkscape:label="Clip"
               id="g24">
              <rect
                 style="fill:#000000;stroke-width:0.264583"
                 id="rect4"
                 width="210.14499"
                 height="135.43494"
                 x="0"
                 y="5.5204463" />
            </g>
          </g>
          <path
             d="m 30.546469,111.08547 c 168.925651,0.38286 168.189591,0.38286 168.189591,0.38286"
             id="path6"
             style="fill:#ff0000"
             inkscape:original-d="M 0,0"
             inkscape:path-effect="#path-effect6" />
          <path
             style="fill:#ff0000;fill-rule:nonzero;stroke:none;stroke-width:0.264583"
             d="m 15.825279,98.263939 c 0,0 -0.01088,4.992131 -0.01088,4.992131 25.338843,0.0552 58.907086,-0.18363 86.343007,-0.59173 28.20399,-0.41953 48.28027,-0.97338 61.1043,-1.58231 10.87884,-0.51657 15.79681,-1.03433 18.2265,-1.470206 1.36868,-0.245536 1.94836,-0.467375 2.22754,-0.631262 0.16428,-0.09643 0.2334,-0.179174 0.26586,-0.236608 0.0188,-0.03324 0.0266,-0.06061 0.0301,-0.07903 9.7e-4,-0.0051 0.002,-0.0096 0.002,-0.01353 4.8e-4,-0.0041 7.5e-4,-0.0076 9e-4,-0.01035 1.5e-4,-0.0091 1.6e-4,-0.0089 1.7e-4,-0.0085 -2.2e-4,-0.0125 -4.7e-4,-0.01598 -9.3e-4,-0.02005 -4.5e-4,-0.0039 -0.001,-0.0085 -0.002,-0.01354 -0.003,-0.01844 -0.0111,-0.04586 -0.0297,-0.07919 -0.0322,-0.0576 -0.10096,-0.140672 -0.2648,-0.237865 -0.27846,-0.16518 -0.85717,-0.38967 -2.22476,-0.641326 -2.42774,-0.446741 -7.34347,-0.98633 -18.21994,-1.550711 -12.82145,-0.665306 -32.89478,-1.307069 -61.09687,-1.849775 -27.433903,-0.527924 -61.000802,-0.91311 -86.339655,-0.968314 0,0 -0.01088,4.992126 -0.01088,4.992126 z"
             id="path5"
             inkscape:linked-fill="path6"
             transform="translate(18.769517,8.464684)"
             inkscape:original-d="m 15.825279,98.263939 c 168.925651,0.36803 168.189591,0.36803 168.189591,0.36803"
             inkscape:path-effect="#path-effect5" />
          <path
             d="M 148.68401,76.245083 1.4721189,77.776527"
             id="path10"
             style="fill:#ff0000"
             inkscape:original-d="M 0,0"
             inkscape:path-effect="#path-effect10" />
          <path
             style="fill:#ff0000;fill-rule:nonzero;stroke:none;stroke-width:0.264583"
             d="m 173.342,63.301115 c 0,0 -0.0499,-4.991889 -0.0499,-4.991889 -29.44238,0.294424 -117.719591,6.169583 -147.161969,6.464006 29.442378,-0.294423 117.819429,3.814195 147.261809,3.519772 0,0 -0.0499,-4.991889 -0.0499,-4.991889 z"
             id="path9"
             inkscape:linked-fill="path10"
             transform="translate(-20.609665,9.936803)"
             inkscape:original-d="M 173.342,63.301115 26.130111,64.773232"
             inkscape:path-effect="#path-effect9" />
          <ellipse
             style="fill:#ffff00;stroke-width:0.264583"
             id="path11"
             cx="55.940521"
             cy="27.2342"
             rx="29.074348"
             ry="8.0966539"
             clip-path="url(#clipPath13)" />
          <path
             style="fill:#ffff00;fill-rule:nonzero;stroke:none;stroke-width:0.264583"
             d="m 208.67286,133.96282 c 0,0 2.92665,-4.04427 2.92665,-4.04427 -15.5701,-11.26736 -33.16849,-23.31524 -49.27756,-32.899914 -12.25336,-7.290587 -23.01373,-12.784768 -31.75841,-15.966116 -3.94634,-1.435694 -7.47227,-2.397357 -10.56419,-2.856044 -2.96494,-0.43985 -5.62279,-0.430958 -7.8982,0.133471 -1.12543,0.27917 -2.16584,0.696659 -3.09498,1.268053 -0.9257,0.569276 -1.70909,1.27201 -2.34103,2.090477 -0.62646,0.811375 -1.07582,1.69951 -1.38151,2.623311 -0.30338,0.916832 -0.46458,1.865908 -0.52386,2.816848 -0.11758,1.885967 0.15938,3.894421 0.64429,5.88741 0.49354,2.028497 1.22876,4.145181 2.09115,6.243886 1.79337,4.364358 4.21989,8.851438 6.47568,12.649908 2.5308,4.26154 4.97968,7.88338 6.59796,10.17667 2.23871,3.17251 3.08914,4.14769 3.08914,4.14769 0,0 -0.64592,-1.11933 -2.496,-4.51683 -1.30234,-2.39162 -3.41853,-6.3577 -5.44782,-10.72769 -1.84568,-3.97458 -3.74558,-8.54889 -4.96631,-12.8606 -0.58669,-2.072272 -1.00781,-4.054016 -1.19577,-5.853111 -0.18727,-1.792404 -0.13238,-3.309494 0.15747,-4.498475 0.14282,-0.585855 0.33517,-1.060189 0.55873,-1.436226 0.2228,-0.374758 0.46854,-0.641687 0.73225,-0.844151 0.25794,-0.198023 0.55873,-0.352318 0.91431,-0.472098 0.36257,-0.122135 0.82512,-0.222344 1.41228,-0.270355 1.22679,-0.10031 2.94262,0.03158 5.31367,0.606268 2.44808,0.593353 5.42176,1.616505 8.98003,3.144748 7.91911,3.401183 17.97296,8.974225 29.85924,16.43631 15.64186,9.8198 32.71853,21.81402 48.26614,33.0651 z"
             id="path12"
             inkscape:linked-fill="path13"
             transform="translate(-32.754647,-66.981412)"
             inkscape:original-d="M 208.67286,133.96282 C 51.524164,20.241635 123.65799,126.2342 123.65799,126.2342"
             inkscape:path-effect="#path-effect12" />
        </g>
      </g>
    </g>
    <rect
       style="fill:#878778;fill-opacity:0.00518135;stroke-width:0.264583"
       id="rect31"
       width="208.67285"
       height="133.22676"
       x="2.5762081"
       y="9.2007437"
       inkscape:transform-center-y="12.352258"
       clip-path="url(#clipPath47)"
       transform="matrix(1,0,0,1.0488505,-8.8327138,-10.07217)" />
    <path
       d="m 168.55762,99.368029 12.88104,20.609661"
       id="path8"
       style="fill:#ff0000"
       clip-path="url(#clipPath15)"
       inkscape:original-d="M 0,0"
       inkscape:path-effect="#path-effect8" />
    <path
       style="fill:#ff0000;fill-rule:nonzero;stroke:none;stroke-width:0.264583"
       d="m 168.55762,99.368029 c 0,0 -4.23332,2.645831 -4.23332,2.645831 2.5762,4.12193 14.53815,13.8419 17.11436,17.96383 -2.57621,-4.12193 -6.07151,-19.13356 -8.64772,-23.255489 0,0 -4.23332,2.645828 -4.23332,2.645828 z"
       id="path7"
       inkscape:linked-fill="path8"
       clip-path="url(#clipPath14)"
       inkscape:original-d="m 168.55762,99.368029 12.88104,20.609661"
       inkscape:path-effect="#path-effect7" />
    <rect
       style="fill:#808080;fill-opacity:0.0518135;stroke-width:0.264583"
       id="rect36"
       width="10.304832"
       height="0.73605949"
       x="2.5762081"
       y="129.54646"
       clip-path="url(#clipPath45)"
       transform="matrix(1,0,0,1.0488505,0,-0.50339698)" />
  </g>
</svg>
